<svg height="32pt" preserveAspectRatio="xMidYMid meet" viewBox="0 0 22 32" width="22pt" xmlns="http://www.w3.org/2000/svg">
  <g transform="matrix(.1 0 0 -.1 0 32)">
    <path d="m0 160v-160h110 110v160 160h-110-110z"/>
    <path d="m180 160v-70h-70-70v70 70h70 70z" fill="#fff"/>
    <path d="m50 160v-60h30 30v60 60h-30-30z"/>
    <path d="m120 190v-30h25 25v30 30h-25-25z"/>
    <path d="m120 125v-25h10 10v25 25h-10-10z"/>
    <path d="m150 140v-10h10 10v10 10h-10-10z"/>
    <path d="m150 110v-10h10 10v10 10h-10-10z"/>
  </g>
</svg>
