<svg height="32pt" preserveAspectRatio="xMidYMid meet" viewBox="0 0 22 32" width="22pt" xmlns="http://www.w3.org/2000/svg">
  <g transform="matrix(.1 0 0 -.1 0 32)">
    <path d="m0 160v-160h110 110v160 160h-110-110z"/>
    <path d="m180 160v-70h-70-70v70 70h70 70z" fill="#fff"/>
    <path d="m50 190v-30h60 60v30 30h-60-60z"/>
    <path d="m50 140v-10h15 15v10 10h-15-15z"/>
    <path d="m90 140v-10h20 20v10 10h-20-20z"/>
    <path d="m140 140v-10h15 15v10 10h-15-15z"/>
    <path d="m50 110v-10h15 15v10 10h-15-15z"/>
    <path d="m90 110v-10h20 20v10 10h-20-20z"/>
    <path d="m140 110v-10h15 15v10 10h-15-15z"/>
  </g>
</svg>
