<svg height="32pt" preserveAspectRatio="xMidYMid meet" viewBox="0 0 22 32" width="22pt" xmlns="http://www.w3.org/2000/svg">
  <g transform="matrix(.1 0 0 -.1 0 32)">
    <path d="m0 160v-160h110 110v160 160h-110-110z"/>
    <path d="m180 160v-70h-70-70v70 70h70 70z" fill="#fff"/>
    <path d="m50 160v-60h30 30v60 60h-30-30z"/>
    <path d="m120 205v-15h10 10v15 15h-10-10z"/>
    <path d="m150 205v-15h10 10v15 15h-10-10z"/>
    <path d="m120 160v-20h10 10v20 20h-10-10z"/>
    <path d="m150 160v-20h10 10v20 20h-10-10z"/>
    <path d="m120 115v-15h10 10v15 15h-10-10z"/>
    <path d="m150 115v-15h10 10v15 15h-10-10z"/>
  </g>
</svg>
